<svg xmlns="http://www.w3.org/2000/svg" viewBox="0 0 1024 1024" width="1024" height="1024">
  <defs>
    <linearGradient id="bg" x1="0" y1="0" x2="1" y2="1">
      <stop offset="0" stop-color="#1E1B4B"/>
      <stop offset="0.55" stop-color="#4C1D95"/>
      <stop offset="1" stop-color="#7C3AED"/>
    </linearGradient>
    <radialGradient id="glow" cx="0.5" cy="0.32" r="0.72">
      <stop offset="0" stop-color="#FBBF24" stop-opacity="0.24"/>
      <stop offset="1" stop-color="#FBBF24" stop-opacity="0"/>
    </radialGradient>
    <linearGradient id="seed" x1="0" y1="0" x2="0" y2="1">
      <stop offset="0" stop-color="#FFFFFF"/>
      <stop offset="1" stop-color="#FEF3C7"/>
    </linearGradient>
  </defs>
  <rect width="1024" height="1024" rx="228" ry="228" fill="url(#bg)"/>
  <rect width="1024" height="1024" rx="228" ry="228" fill="url(#glow)"/>
  <ellipse cx="512" cy="512" rx="400" ry="140" fill="none" stroke="#FBBF24" stroke-width="2.5" stroke-dasharray="8 12" opacity="0.6"/>
  <ellipse cx="512" cy="512" rx="310" ry="100" fill="none" stroke="#FCD34D" stroke-width="1.5" opacity="0.35"/>
  <circle cx="892" cy="549" r="18" fill="#FBBF24" opacity="0.95"/>
  <circle cx="512" cy="632" r="14" fill="#FCD34D" opacity="0.9"/>
  <circle cx="132" cy="549" r="22" fill="#FBBF24" opacity="0.95"/>
  <circle cx="277" cy="415" r="12" fill="#FFFFFF" opacity="0.8"/>
  <circle cx="747" cy="415" r="16" fill="#FFFFFF" opacity="0.9"/>
  <g transform="translate(512 512) rotate(32)">
    <path d="M 0,-262 C 116,-184 116,184 0,262 C -116,184 -116,-184 0,-262 Z" fill="url(#seed)"/>
    <line x1="0" y1="-218" x2="0" y2="218" stroke="#5B21B6" stroke-width="5" stroke-linecap="round" opacity="0.5"/>
  </g>
  <circle cx="512" cy="512" r="22" fill="none" stroke="#FBBF24" stroke-width="2.5" opacity="0.8"/>
  <circle cx="512" cy="512" r="13" fill="#FBBF24"/>
  <circle cx="296" cy="262" r="8" fill="#FCD34D" opacity="0.75"/>
  <circle cx="748" cy="276" r="6" fill="#FCD34D" opacity="0.6"/>
  <circle cx="820" cy="752" r="10" fill="#FCD34D" opacity="0.8"/>
</svg>
