<svg xmlns="http://www.w3.org/2000/svg" viewBox="0 0 1024 1024" width="1024" height="1024">
  <defs>
    <linearGradient id="bg" x1="0" y1="0" x2="1" y2="1">
      <stop offset="0" stop-color="#4F46E5"/>
      <stop offset="0.55" stop-color="#8B5CF6"/>
      <stop offset="1" stop-color="#EC4899"/>
    </linearGradient>
    <radialGradient id="glow" cx="0.5" cy="0.35" r="0.7">
      <stop offset="0" stop-color="#FFFFFF" stop-opacity="0.32"/>
      <stop offset="1" stop-color="#FFFFFF" stop-opacity="0"/>
    </radialGradient>
    <linearGradient id="seed" x1="0" y1="0" x2="0" y2="1">
      <stop offset="0" stop-color="#FFFFFF"/>
      <stop offset="1" stop-color="#E0E7FF"/>
    </linearGradient>
  </defs>
  <rect width="1024" height="1024" rx="228" ry="228" fill="url(#bg)"/>
  <rect width="1024" height="1024" rx="228" ry="228" fill="url(#glow)"/>
  <g transform="translate(512 512) rotate(32)">
    <path d="M 0,-262 C 116,-184 116,184 0,262 C -116,184 -116,-184 0,-262 Z" fill="url(#seed)"/>
    <path d="M 0,-218 L 0,218" stroke="#4F46E5" stroke-width="6" stroke-linecap="round" opacity="0.32"/>
  </g>
  <g transform="translate(772 728) rotate(32)" opacity="0.78">
    <path d="M 0,-62 C 27,-43 27,43 0,62 C -27,43 -27,-43 0,-62 Z" fill="#FFFFFF"/>
  </g>
  <g transform="translate(268 240) rotate(32)" opacity="0.55">
    <path d="M 0,-46 C 20,-32 20,32 0,46 C -20,32 -20,-32 0,-46 Z" fill="#FFFFFF"/>
  </g>
</svg>
