<svg xmlns="http://www.w3.org/2000/svg" viewBox="0 0 1024 1024" width="1024" height="1024">
  <defs>
    <linearGradient id="bg" x1="0" y1="0" x2="1" y2="1">
      <stop offset="0" stop-color="#0F172A"/>
      <stop offset="0.55" stop-color="#1E1B4B"/>
      <stop offset="1" stop-color="#4C1D95"/>
    </linearGradient>
    <radialGradient id="glow" cx="0.5" cy="0.32" r="0.72">
      <stop offset="0" stop-color="#22D3EE" stop-opacity="0.28"/>
      <stop offset="1" stop-color="#22D3EE" stop-opacity="0"/>
    </radialGradient>
    <linearGradient id="seed" x1="0" y1="0" x2="0" y2="1">
      <stop offset="0" stop-color="#E0F2FE"/>
      <stop offset="1" stop-color="#7DD3FC"/>
    </linearGradient>
  </defs>
  <rect width="1024" height="1024" rx="228" ry="228" fill="url(#bg)"/>
  <rect width="1024" height="1024" rx="228" ry="228" fill="url(#glow)"/>
  <ellipse cx="512" cy="512" rx="280" ry="98" fill="none" stroke="#22D3EE" stroke-width="2.5" stroke-dasharray="8 12" opacity="0.5"/>
  <circle cx="778" cy="538" r="13" fill="#22D3EE" opacity="0.95"/>
  <circle cx="512" cy="596" r="10" fill="#22D3EE" opacity="0.85"/>
  <circle cx="246" cy="538" r="16" fill="#22D3EE" opacity="0.95"/>
  <circle cx="347" cy="444" r="9" fill="#67E8F9" opacity="0.75"/>
  <circle cx="677" cy="444" r="12" fill="#67E8F9" opacity="0.85"/>
  <g transform="translate(512 512) rotate(32)">
    <path d="M 0,-184 C 80,-130 80,130 0,184 C -80,130 -80,-130 0,-184 Z" fill="url(#seed)"/>
    <line x1="0" y1="-153" x2="0" y2="153" stroke="#0E7490" stroke-width="4" stroke-linecap="round" opacity="0.55"/>
  </g>
  <circle cx="512" cy="512" r="16" fill="none" stroke="#22D3EE" stroke-width="2.5" opacity="0.7"/>
  <circle cx="512" cy="512" r="9" fill="#22D3EE"/>
  <circle cx="361" cy="337" r="7" fill="#67E8F9" opacity="0.65"/>
  <circle cx="677" cy="347" r="5" fill="#67E8F9" opacity="0.55"/>
  <circle cx="728" cy="680" r="8" fill="#67E8F9" opacity="0.75"/>
</svg>
