<svg xmlns="http://www.w3.org/2000/svg" viewBox="0 0 1024 1024" width="1024" height="1024">
  <defs>
    <linearGradient id="bg" x1="0" y1="0" x2="1" y2="1">
      <stop offset="0" stop-color="#4F46E5"/>
      <stop offset="0.55" stop-color="#8B5CF6"/>
      <stop offset="1" stop-color="#EC4899"/>
    </linearGradient>
    <radialGradient id="glow" cx="0.5" cy="0.32" r="0.72">
      <stop offset="0" stop-color="#FFFFFF" stop-opacity="0.32"/>
      <stop offset="1" stop-color="#FFFFFF" stop-opacity="0"/>
    </radialGradient>
    <linearGradient id="seed" x1="0" y1="0" x2="0" y2="1">
      <stop offset="0" stop-color="#FFFFFF"/>
      <stop offset="1" stop-color="#E0E7FF"/>
    </linearGradient>
  </defs>
  <rect width="1024" height="1024" rx="228" ry="228" fill="url(#bg)"/>
  <rect width="1024" height="1024" rx="228" ry="228" fill="url(#glow)"/>
  <ellipse cx="512" cy="512" rx="400" ry="140" fill="none" stroke="#FFFFFF" stroke-width="3" stroke-dasharray="10 14" opacity="0.42"/>
  <circle cx="892" cy="549" r="18" fill="#FFFFFF" opacity="0.95"/>
  <circle cx="512" cy="632" r="14" fill="#FFFFFF" opacity="0.85"/>
  <circle cx="132" cy="549" r="22" fill="#FBBF24" opacity="0.95"/>
  <circle cx="277" cy="415" r="12" fill="#FFFFFF" opacity="0.7"/>
  <circle cx="747" cy="415" r="16" fill="#FFFFFF" opacity="0.8"/>
  <g transform="translate(512 512) rotate(32)">
    <path d="M 0,-262 C 116,-184 116,184 0,262 C -116,184 -116,-184 0,-262 Z" fill="url(#seed)"/>
    <line x1="0" y1="-218" x2="0" y2="218" stroke="#4F46E5" stroke-width="5" stroke-linecap="round" opacity="0.4"/>
  </g>
  <circle cx="512" cy="512" r="22" fill="none" stroke="#FBBF24" stroke-width="2.5" opacity="0.6"/>
  <circle cx="512" cy="512" r="13" fill="#FBBF24"/>
  <circle cx="296" cy="262" r="8" fill="#FFFFFF" opacity="0.6"/>
  <circle cx="748" cy="276" r="6" fill="#FFFFFF" opacity="0.5"/>
  <circle cx="820" cy="752" r="10" fill="#FFFFFF" opacity="0.7"/>
</svg>
